<?xml version="1.0" standalone="no"?>
<!DOCTYPE svg PUBLIC "-//W3C//DTD SVG 20010904//EN"
 "http://www.w3.org/TR/2001/REC-SVG-20010904/DTD/svg10.dtd">
<svg version="1.0" xmlns="http://www.w3.org/2000/svg"
 width="482.000000pt" height="482.000000pt" viewBox="0 0 482.000000 482.000000"
 preserveAspectRatio="xMidYMid meet">

<g transform="translate(0.000000,482.000000) scale(0.100000,-0.100000)"
fill="#000000" stroke="none">
<path d="M2145 4475 c-484 -64 -908 -273 -1243 -613 -413 -421 -640 -1038
-593 -1611 49 -585 308 -1093 746 -1461 420 -354 1011 -537 1543 -479 811 88
1480 602 1763 1355 59 157 119 418 119 517 l0 37 -225 0 c-222 0 -225 0 -225
-21 0 -11 -9 -67 -21 -122 -104 -516 -446 -951 -921 -1171 -531 -246 -1158
-188 -1638 152 -122 86 -296 260 -382 382 -418 589 -406 1370 30 1948 81 108
233 256 343 334 659 470 1553 397 2119 -173 238 -239 384 -518 456 -866 l4
-23 225 0 225 0 0 30 c0 54 -48 258 -90 382 -287 848 -1097 1424 -1993 1417
-78 -1 -187 -7 -242 -14z"/>
</g>
</svg>
